<svg width="7" height="13" viewBox="0 0 7 13" fill="none" xmlns="http://www.w3.org/2000/svg">
<path id="Vector" d="M1.0225 3.64622L2.5625 2.10622V12.3362C2.5625 12.6662 2.8325 12.9362 3.1625 12.9362C3.4925 12.9362 3.7625 12.6662 3.7625 12.3362V2.10622L5.3025 3.64622C5.4225 3.76622 5.5725 3.82622 5.7225 3.82622C5.8725 3.82622 6.0325 3.76622 6.1425 3.64622C6.3725 3.41622 6.3725 3.03622 6.1425 2.79622L3.5825 0.236221C3.3525 0.0062207 2.9725 0.0062207 2.7325 0.236221L0.1725 2.79622C-0.0575 3.02622 -0.0575 3.40622 0.1725 3.64622C0.4025 3.87622 0.782499 3.87622 1.0225 3.64622Z" fill="black"/>
</svg>
