<svg width="7" height="13" viewBox="0 0 7 13" fill="none" xmlns="http://www.w3.org/2000/svg">
<path id="Vector" d="M5.2925 9.35378L3.7525 10.8938L3.7525 0.663779C3.7525 0.333779 3.4825 0.0637786 3.1525 0.0637786C2.8225 0.0637786 2.5525 0.333779 2.5525 0.663779L2.5525 10.8938L1.0125 9.35378C0.892502 9.23378 0.742502 9.17378 0.592502 9.17378C0.442502 9.17378 0.282503 9.23378 0.172503 9.35378C-0.0574972 9.58378 -0.0574972 9.96378 0.172503 10.2038L2.7325 12.7638C2.9625 12.9938 3.3425 12.9938 3.5825 12.7638L6.1425 10.2038C6.3725 9.97378 6.3725 9.59378 6.1425 9.35378C5.9125 9.12378 5.5325 9.12378 5.2925 9.35378Z" fill="white"/>
</svg>
